<svg xmlns="http://www.w3.org/2000/svg" xmlns:xlink="http://www.w3.org/1999/xlink" contentStyleType="text/css" height="479px" preserveAspectRatio="none" style="width:605px;height:479px;background:#FFFFFF;" version="1.1" viewBox="0 0 605 479" width="605px" zoomAndPan="magnify"><defs/><g><text fill="#000000" font-family="sans-serif" font-size="14" font-weight="bold" lengthAdjust="spacing" textLength="238" x="176.75" y="23.5352">FluentMark AE main components</text><!--cluster FluentMark AE--><g id="cluster_FluentMark AE"><rect fill="#D3D3D3" height="321.98" rx="2.5" ry="2.5" style="stroke:#181818;stroke-width:1.0;" width="556" x="43.5" y="132.4583"/><rect fill="#D3D3D3" height="10" style="stroke:#181818;stroke-width:1.0;" width="15" x="579.5" y="137.4583"/><rect fill="#D3D3D3" height="2" style="stroke:#181818;stroke-width:1.0;" width="4" x="577.5" y="139.4583"/><rect fill="#D3D3D3" height="2" style="stroke:#181818;stroke-width:1.0;" width="4" x="577.5" y="143.4583"/><text fill="#000000" font-family="sans-serif" font-size="14" font-weight="bold" lengthAdjust="spacing" textLength="104" x="269.5" y="158.9934">FluentMark AE</text></g><!--entity core--><g id="elem_core"><rect fill="#F1F1F1" height="46.4883" rx="2.5" ry="2.5" style="stroke:#181818;stroke-width:0.5;" width="216" x="100.5" y="167.4583"/><rect fill="#F1F1F1" height="10" style="stroke:#181818;stroke-width:0.5;" width="15" x="296.5" y="172.4583"/><rect fill="#F1F1F1" height="2" style="stroke:#181818;stroke-width:0.5;" width="4" x="294.5" y="174.4583"/><rect fill="#F1F1F1" height="2" style="stroke:#181818;stroke-width:0.5;" width="4" x="294.5" y="178.4583"/><text fill="#000000" font-family="sans-serif" font-size="14" lengthAdjust="spacing" textLength="176" x="115.5" y="200.9934">net.certiv.fluentmark.core</text></g><!--entity ui--><g id="elem_ui"><rect fill="#F1F1F1" height="46.4883" rx="2.5" ry="2.5" style="stroke:#181818;stroke-width:0.5;" width="199" x="192" y="273.9483"/><rect fill="#F1F1F1" height="10" style="stroke:#181818;stroke-width:0.5;" width="15" x="371" y="278.9483"/><rect fill="#F1F1F1" height="2" style="stroke:#181818;stroke-width:0.5;" width="4" x="369" y="280.9483"/><rect fill="#F1F1F1" height="2" style="stroke:#181818;stroke-width:0.5;" width="4" x="369" y="284.9483"/><text fill="#000000" font-family="sans-serif" font-size="14" lengthAdjust="spacing" textLength="159" x="207" y="307.4834">net.certiv.fluentmark.ui</text></g><!--entity spellchecker--><g id="elem_spellchecker"><rect fill="#F1F1F1" height="46.4883" rx="2.5" ry="2.5" style="stroke:#181818;stroke-width:0.5;" width="192" x="351.5" y="167.4583"/><rect fill="#F1F1F1" height="10" style="stroke:#181818;stroke-width:0.5;" width="15" x="523.5" y="172.4583"/><rect fill="#F1F1F1" height="2" style="stroke:#181818;stroke-width:0.5;" width="4" x="521.5" y="174.4583"/><rect fill="#F1F1F1" height="2" style="stroke:#181818;stroke-width:0.5;" width="4" x="521.5" y="178.4583"/><text fill="#000000" font-family="sans-serif" font-size="14" lengthAdjust="spacing" textLength="152" x="366.5" y="200.9934">net.certiv.spellchecker</text></g><!--entity markerCalc--><g id="elem_markerCalc"><ellipse cx="130.5" cy="409.4383" fill="#F1F1F1" rx="8" ry="8" style="stroke:#181818;stroke-width:0.5;"/><text fill="#000000" font-family="sans-serif" font-size="14" lengthAdjust="spacing" textLength="127" x="67" y="439.9734">marker calculators</text></g><!--entity validators--><g id="elem_validators"><ellipse cx="291.5" cy="409.4383" fill="#F1F1F1" rx="8" ry="8" style="stroke:#181818;stroke-width:0.5;"/><text fill="#000000" font-family="sans-serif" font-size="14" lengthAdjust="spacing" textLength="94" x="244.5" y="439.9734">URI validators</text></g><!--entity builders--><g id="elem_builders"><ellipse cx="482.5" cy="409.4383" fill="#F1F1F1" rx="8" ry="8" style="stroke:#181818;stroke-width:0.5;"/><text fill="#000000" font-family="sans-serif" font-size="14" lengthAdjust="spacing" textLength="187" x="389" y="439.9734">marker calculation builders</text></g><!--entity PlantUML--><g id="elem_PlantUML"><rect fill="#ADD8E6" height="62.9766" rx="2.5" ry="2.5" style="stroke:#181818;stroke-width:0.5;" width="111" x="7" y="44.4883"/><rect fill="#ADD8E6" height="10" style="stroke:#181818;stroke-width:0.5;" width="15" x="98" y="49.4883"/><rect fill="#ADD8E6" height="2" style="stroke:#181818;stroke-width:0.5;" width="4" x="96" y="51.4883"/><rect fill="#ADD8E6" height="2" style="stroke:#181818;stroke-width:0.5;" width="4" x="96" y="55.4883"/><text fill="#000000" font-family="sans-serif" font-size="14" font-style="italic" lengthAdjust="spacing" textLength="71" x="22" y="78.0234">&#171;external&#187;</text><text fill="#000000" font-family="sans-serif" font-size="14" lengthAdjust="spacing" textLength="63" x="26" y="94.5117">PlantUML</text></g><!--entity flexmark--><g id="elem_flexmark"><rect fill="#ADD8E6" height="62.9766" rx="2.5" ry="2.5" style="stroke:#181818;stroke-width:0.5;" width="111" x="153" y="44.4883"/><rect fill="#ADD8E6" height="10" style="stroke:#181818;stroke-width:0.5;" width="15" x="244" y="49.4883"/><rect fill="#ADD8E6" height="2" style="stroke:#181818;stroke-width:0.5;" width="4" x="242" y="51.4883"/><rect fill="#ADD8E6" height="2" style="stroke:#181818;stroke-width:0.5;" width="4" x="242" y="55.4883"/><text fill="#000000" font-family="sans-serif" font-size="14" font-style="italic" lengthAdjust="spacing" textLength="71" x="168" y="78.0234">&#171;external&#187;</text><text fill="#000000" font-family="sans-serif" font-size="14" lengthAdjust="spacing" textLength="61" x="173" y="94.5117">flexmark</text></g><!--entity pandoc--><g id="elem_pandoc"><rect fill="#ADD8E6" height="62.9766" rx="2.5" ry="2.5" style="stroke:#181818;stroke-width:0.5;" width="111" x="299" y="44.4883"/><rect fill="#ADD8E6" height="10" style="stroke:#181818;stroke-width:0.5;" width="15" x="390" y="49.4883"/><rect fill="#ADD8E6" height="2" style="stroke:#181818;stroke-width:0.5;" width="4" x="388" y="51.4883"/><rect fill="#ADD8E6" height="2" style="stroke:#181818;stroke-width:0.5;" width="4" x="388" y="55.4883"/><text fill="#000000" font-family="sans-serif" font-size="14" font-style="italic" lengthAdjust="spacing" textLength="71" x="314" y="78.0234">&#171;external&#187;</text><text fill="#000000" font-family="sans-serif" font-size="14" lengthAdjust="spacing" textLength="51" x="324" y="94.5117">pandoc</text></g><!--reverse link PlantUML to core--><g id="link_PlantUML_core"><path d="M107.1491,111.4451 C131.4591,130.2151 157.24,150.1283 179.31,167.1683 " fill="none" id="PlantUML-backto-core" style="stroke:#181818;stroke-width:1.0;stroke-dasharray:7.0,7.0;"/><polygon fill="#181818" points="102.4,107.7783,107.0791,116.4446,106.3576,110.834,111.9683,110.1125,102.4,107.7783" style="stroke:#181818;stroke-width:1.0;"/></g><!--reverse link flexmark to core--><g id="link_flexmark_core"><path d="M208.5,113.7783 C208.5,132.5483 208.5,150.1283 208.5,167.1683 " fill="none" id="flexmark-backto-core" style="stroke:#181818;stroke-width:1.0;stroke-dasharray:7.0,7.0;"/><polygon fill="#181818" points="208.5,107.7783,204.5,116.7783,208.5,112.7783,212.5,116.7783,208.5,107.7783" style="stroke:#181818;stroke-width:1.0;"/></g><!--reverse link pandoc to core--><g id="link_pandoc_core"><path d="M309.8509,111.4451 C285.5409,130.2151 259.76,150.1283 237.69,167.1683 " fill="none" id="pandoc-backto-core" style="stroke:#181818;stroke-width:1.0;stroke-dasharray:7.0,7.0;"/><polygon fill="#181818" points="314.6,107.7783,305.0317,110.1125,310.6424,110.834,309.9209,116.4446,314.6,107.7783" style="stroke:#181818;stroke-width:1.0;"/></g><!--reverse link core to ui--><g id="link_core_ui"><path d="M230.2411,219.0771 C244.1611,236.6071 259.61,256.0483 273.53,273.5683 " fill="none" id="core-backto-ui" style="stroke:#181818;stroke-width:1.0;stroke-dasharray:7.0,7.0;"/><polygon fill="#181818" points="226.51,214.3783,228.9742,223.9139,229.6193,218.2939,235.2392,218.939,226.51,214.3783" style="stroke:#181818;stroke-width:1.0;"/></g><!--reverse link spellchecker to ui--><g id="link_spellchecker_ui"><path d="M408.665,217.7175 C382.495,235.2475 351.43,256.0483 325.28,273.5683 " fill="none" id="spellchecker-backto-ui" style="stroke:#181818;stroke-width:1.0;stroke-dasharray:7.0,7.0;"/><polygon fill="#181818" points="413.65,214.3783,403.9464,216.0637,409.4959,217.1609,408.3987,222.7104,413.65,214.3783" style="stroke:#181818;stroke-width:1.0;"/></g><!--link ui to markerCalc--><g id="link_ui_markerCalc"><path d="M258.53,320.7683 C220.81,346.5983 161.4,387.2783 139.23,402.4583 " fill="none" id="ui-markerCalc" style="stroke:#181818;stroke-width:1.0;"/></g><!--link ui to builders--><g id="link_ui_builders"><path d="M330.61,320.7683 C376.23,347.0983 448.6,388.8683 473.63,403.3183 " fill="none" id="ui-builders" style="stroke:#181818;stroke-width:1.0;"/></g><!--link ui to validators--><g id="link_ui_validators"><path d="M291.5,320.7683 C291.5,345.5883 291.5,384.1283 291.5,400.5683 " fill="none" id="ui-validators" style="stroke:#181818;stroke-width:1.0;"/></g><text fill="#888888" font-family="sans-serif" font-size="10" lengthAdjust="spacing" textLength="191" x="200.25" y="469.1063">FluentMark Advantest Edition ver. 1.5.1</text><!--SRC=[ZP9DQy9048RFzLUyJSykUEXD12af5BGKgL2G7jRDH1VNNTbiWgNqltS_D35IYeSGvfrvvdC1EEaKuLdLfDsSsnscEVPSQWYpFnZjrMem012- -u9AgGdvntk-U9tEC1xJqP7LN4qcU51oitLhdoa2MBqfhjroFljiWS7TgbHqtFiwFV70TM549o5bQ5j0rcimEzNQMFw5xnZQ3zVac23hPCFA28QAJ1XBu1N2_sQebW6fvVz0TI2bn9R4Zco8lxHRKcg_gv8BGXPI-qZ1bQWLTyPMMS2I_EJLlw3buWKDLxBeWCwyeOeq6kjQge9EzDc8x4_Q-Vbe63FMRUfyjLQDxm7fRXUXfxDvVz3yxgBGsqvoHDtxXyFhePFOQor9LxEclepnq_QURz7u0QXoo0iPHsx8CepO8nlz0W00]--></g></svg>