<svg xmlns="http://www.w3.org/2000/svg" xmlns:xlink="http://www.w3.org/1999/xlink" contentStyleType="text/css" height="495px" preserveAspectRatio="none" style="width:743px;height:495px;background:#FFFFFF;" version="1.1" viewBox="0 0 743 495" width="743px" zoomAndPan="magnify"><defs/><g><text fill="#000000" font-family="sans-serif" font-size="14" font-weight="bold" lengthAdjust="spacing" textLength="113" x="308" y="23.5352">System Context</text><!--cluster markdown-core--><g id="cluster_markdown-core"><rect fill="#ADD8E6" height="129" rx="2.5" ry="2.5" style="stroke:#181818;stroke-width:1.0;" width="371" x="178.5" y="122.9783"/><rect fill="#ADD8E6" height="10" style="stroke:#181818;stroke-width:1.0;" width="15" x="529.5" y="127.9783"/><rect fill="#ADD8E6" height="2" style="stroke:#181818;stroke-width:1.0;" width="4" x="527.5" y="129.9783"/><rect fill="#ADD8E6" height="2" style="stroke:#181818;stroke-width:1.0;" width="4" x="527.5" y="133.9783"/><text fill="#000000" font-family="sans-serif" font-size="14" font-style="italic" lengthAdjust="spacing" textLength="71" x="328.5" y="149.5134">&#171;external&#187;</text><text fill="#000000" font-family="sans-serif" font-size="14" font-weight="bold" lengthAdjust="spacing" textLength="115" x="306.5" y="166.0017">markdown-core</text></g><!--entity flexmark--><g id="elem_flexmark"><rect fill="#ADD8E6" height="62.9766" rx="2.5" ry="2.5" style="stroke:#181818;stroke-width:0.5;" width="111" x="422.5" y="173.4883"/><rect fill="#ADD8E6" height="10" style="stroke:#181818;stroke-width:0.5;" width="15" x="513.5" y="178.4883"/><rect fill="#ADD8E6" height="2" style="stroke:#181818;stroke-width:0.5;" width="4" x="511.5" y="180.4883"/><rect fill="#ADD8E6" height="2" style="stroke:#181818;stroke-width:0.5;" width="4" x="511.5" y="184.4883"/><text fill="#000000" font-family="sans-serif" font-size="14" font-style="italic" lengthAdjust="spacing" textLength="71" x="437.5" y="207.0234">&#171;external&#187;</text><text fill="#000000" font-family="sans-serif" font-size="14" lengthAdjust="spacing" textLength="61" x="442.5" y="223.5117">flexmark</text></g><!--entity PlantUML--><g id="elem_PlantUML"><rect fill="#ADD8E6" height="62.9766" rx="2.5" ry="2.5" style="stroke:#181818;stroke-width:0.5;" width="111" x="194.5" y="173.4883"/><rect fill="#ADD8E6" height="10" style="stroke:#181818;stroke-width:0.5;" width="15" x="285.5" y="178.4883"/><rect fill="#ADD8E6" height="2" style="stroke:#181818;stroke-width:0.5;" width="4" x="283.5" y="180.4883"/><rect fill="#ADD8E6" height="2" style="stroke:#181818;stroke-width:0.5;" width="4" x="283.5" y="184.4883"/><text fill="#000000" font-family="sans-serif" font-size="14" font-style="italic" lengthAdjust="spacing" textLength="71" x="209.5" y="207.0234">&#171;external&#187;</text><text fill="#000000" font-family="sans-serif" font-size="14" lengthAdjust="spacing" textLength="63" x="213.5" y="223.5117">PlantUML</text></g><!--entity GraphViz--><g id="elem_GraphViz"><rect fill="#ADD8E6" height="62.9766" rx="2.5" ry="2.5" style="stroke:#181818;stroke-width:0.5;" width="111" x="194.5" y="44.4883"/><rect fill="#ADD8E6" height="10" style="stroke:#181818;stroke-width:0.5;" width="15" x="285.5" y="49.4883"/><rect fill="#ADD8E6" height="2" style="stroke:#181818;stroke-width:0.5;" width="4" x="283.5" y="51.4883"/><rect fill="#ADD8E6" height="2" style="stroke:#181818;stroke-width:0.5;" width="4" x="283.5" y="55.4883"/><text fill="#000000" font-family="sans-serif" font-size="14" font-style="italic" lengthAdjust="spacing" textLength="71" x="209.5" y="78.0234">&#171;external&#187;</text><text fill="#000000" font-family="sans-serif" font-size="14" lengthAdjust="spacing" textLength="63" x="213.5" y="94.5117">GraphViz</text></g><!--entity Eclipse--><g id="elem_Eclipse"><rect fill="#ADD8E6" height="62.9766" rx="2.5" ry="2.5" style="stroke:#181818;stroke-width:0.5;" width="113" x="7" y="267.4883"/><rect fill="#ADD8E6" height="10" style="stroke:#181818;stroke-width:0.5;" width="15" x="100" y="272.4883"/><rect fill="#ADD8E6" height="2" style="stroke:#181818;stroke-width:0.5;" width="4" x="98" y="274.4883"/><rect fill="#ADD8E6" height="2" style="stroke:#181818;stroke-width:0.5;" width="4" x="98" y="278.4883"/><text fill="#000000" font-family="sans-serif" font-size="14" font-style="italic" lengthAdjust="spacing" textLength="71" x="23" y="301.0234">&#171;external&#187;</text><text fill="#000000" font-family="sans-serif" font-size="14" lengthAdjust="spacing" textLength="73" x="22" y="317.5117">Eclipse IDE</text></g><!--entity FluentMark--><g id="elem_FluentMark"><rect fill="#D3D3D3" height="46.4883" rx="2.5" ry="2.5" style="stroke:#181818;stroke-width:0.5;" width="139" x="408.5" y="273.7383"/><rect fill="#D3D3D3" height="10" style="stroke:#181818;stroke-width:0.5;" width="15" x="527.5" y="278.7383"/><rect fill="#D3D3D3" height="2" style="stroke:#181818;stroke-width:0.5;" width="4" x="525.5" y="280.7383"/><rect fill="#D3D3D3" height="2" style="stroke:#181818;stroke-width:0.5;" width="4" x="525.5" y="284.7383"/><text fill="#000000" font-family="sans-serif" font-size="14" lengthAdjust="spacing" textLength="99" x="423.5" y="307.2734">FluentMark AE</text></g><!--entity pandoc--><g id="elem_pandoc"><rect fill="#ADD8E6" height="62.9766" rx="2.5" ry="2.5" style="stroke:#181818;stroke-width:0.5;" width="111" x="8" y="365.4883"/><rect fill="#ADD8E6" height="10" style="stroke:#181818;stroke-width:0.5;" width="15" x="99" y="370.4883"/><rect fill="#ADD8E6" height="2" style="stroke:#181818;stroke-width:0.5;" width="4" x="97" y="372.4883"/><rect fill="#ADD8E6" height="2" style="stroke:#181818;stroke-width:0.5;" width="4" x="97" y="376.4883"/><text fill="#000000" font-family="sans-serif" font-size="14" font-style="italic" lengthAdjust="spacing" textLength="71" x="23" y="399.0234">&#171;external&#187;</text><text fill="#000000" font-family="sans-serif" font-size="14" lengthAdjust="spacing" textLength="51" x="33" y="415.5117">pandoc</text></g><!--entity Developer--><g id="elem_Developer"><ellipse cx="701.5" cy="267.2383" fill="#F1F1F1" rx="8" ry="8" style="stroke:#181818;stroke-width:0.5;"/><path d="M701.5,275.2383 L701.5,302.2383 M688.5,283.2383 L714.5,283.2383 M701.5,302.2383 L688.5,317.2383 M701.5,302.2383 L714.5,317.2383 " fill="none" style="stroke:#181818;stroke-width:0.5;"/><text fill="#000000" font-family="sans-serif" font-size="14" lengthAdjust="spacing" textLength="69" x="667" y="332.2734">Developer</text></g><!--entity eep--><g id="elem_eep"><ellipse cx="250" cy="299.9783" fill="#F1F1F1" rx="8" ry="8" style="stroke:#181818;stroke-width:0.5;"/><text fill="#000000" font-family="sans-serif" font-size="14" lengthAdjust="spacing" textLength="122" x="189" y="330.5134">extensions points</text></g><!--entity fep--><g id="elem_fep"><ellipse cx="478" cy="363.9783" fill="#F1F1F1" rx="8" ry="8" style="stroke:#181818;stroke-width:0.5;"/><text fill="#000000" font-family="sans-serif" font-size="14" lengthAdjust="spacing" textLength="115" x="420.5" y="394.5134">extension points</text></g><!--entity extensions--><g id="elem_extensions"><rect fill="#ADD8E6" height="62.9766" rx="2.5" ry="2.5" style="stroke:#181818;stroke-width:0.5;" width="196" x="380" y="407.4883"/><rect fill="#ADD8E6" height="10" style="stroke:#181818;stroke-width:0.5;" width="15" x="556" y="412.4883"/><rect fill="#ADD8E6" height="2" style="stroke:#181818;stroke-width:0.5;" width="4" x="554" y="414.4883"/><rect fill="#ADD8E6" height="2" style="stroke:#181818;stroke-width:0.5;" width="4" x="554" y="418.4883"/><text fill="#000000" font-family="sans-serif" font-size="14" font-style="italic" lengthAdjust="spacing" textLength="71" x="437.5" y="441.0234">&#171;external&#187;</text><text fill="#000000" font-family="sans-serif" font-size="14" lengthAdjust="spacing" textLength="156" x="395" y="457.5117">FluentMark extensions</text></g><!--entity CLI--><g id="elem_CLI"><ellipse cx="250" cy="394.9783" fill="#F1F1F1" rx="8" ry="8" style="stroke:#181818;stroke-width:0.5;"/><text fill="#000000" font-family="sans-serif" font-size="14" lengthAdjust="spacing" textLength="21" x="239.5" y="425.5134">CLI</text></g><!--link PlantUML to GraphViz--><g id="link_PlantUML_GraphViz"><path d="M250,173.2383 C250,151.4483 250,135.6683 250,113.8883 " fill="none" id="PlantUML-to-GraphViz" style="stroke:#181818;stroke-width:1.0;stroke-dasharray:7.0,7.0;"/><polygon fill="#181818" points="250,107.8883,246,116.8883,250,112.8883,254,116.8883,250,107.8883" style="stroke:#181818;stroke-width:1.0;"/></g><!--reverse link PlantUML to flexmark--><g id="link_PlantUML_flexmark"><path d="M312,204.9783 C347.27,204.9783 386.9,204.9783 422.15,204.9783 " fill="none" id="PlantUML-backto-flexmark" style="stroke:#181818;stroke-width:1.0;stroke-dasharray:7.0,7.0;"/><polygon fill="#181818" points="306,204.9783,315,208.9783,311,204.9783,315,200.9783,306,204.9783" style="stroke:#181818;stroke-width:1.0;"/></g><!--link Eclipse to eep--><g id="link_Eclipse_eep"><path d="M120.36,299.2783 C164.05,299.5183 220.73,299.8283 241.2,299.9383 " fill="none" id="Eclipse-eep" style="stroke:#181818;stroke-width:1.0;"/></g><!--reverse link eep to FluentMark--><g id="link_eep_FluentMark"><path d="M264.7795,299.7987 C288.1395,299.4887 353.46,298.6183 408.27,297.8883 " fill="none" id="eep-backto-FluentMark" style="stroke:#181818;stroke-width:1.0;stroke-dasharray:7.0,7.0;"/><polygon fill="#181818" points="258.78,299.8783,267.8323,303.7585,263.7796,299.8119,267.7261,295.7592,258.78,299.8783" style="stroke:#181818;stroke-width:1.0;"/></g><!--reverse link PlantUML to FluentMark--><g id="link_PlantUML_FluentMark"><path d="M311.5569,229.6313 C345.7869,243.5713 384.2,259.2083 418.99,273.3683 " fill="none" id="PlantUML-backto-FluentMark" style="stroke:#181818;stroke-width:1.0;stroke-dasharray:7.0,7.0;"/><polygon fill="#181818" points="306,227.3683,312.8266,234.4674,310.6307,229.2541,315.844,227.0582,306,227.3683" style="stroke:#181818;stroke-width:1.0;"/></g><!--reverse link flexmark to FluentMark--><g id="link_flexmark_FluentMark"><path d="M478,242.7183 C478,254.8983 478,261.0783 478,273.2583 " fill="none" id="flexmark-backto-FluentMark" style="stroke:#181818;stroke-width:1.0;stroke-dasharray:7.0,7.0;"/><polygon fill="#181818" points="478,236.7183,474,245.7183,478,241.7183,482,245.7183,478,236.7183" style="stroke:#181818;stroke-width:1.0;"/></g><!--link pandoc to CLI--><g id="link_pandoc_CLI"><path d="M119.36,396.3883 C163.12,395.9083 220.4,395.2883 241.1,395.0683 " fill="none" id="pandoc-CLI" style="stroke:#181818;stroke-width:1.0;"/></g><!--reverse link CLI to FluentMark--><g id="link_CLI_FluentMark"><path d="M264.2677,388.8438 C284.3077,379.5938 333.77,356.8983 380,336.9783 C392.46,331.6083 405.89,325.9783 418.66,320.6883 " fill="none" id="CLI-backto-FluentMark" style="stroke:#181818;stroke-width:1.0;stroke-dasharray:7.0,7.0;"/><polygon fill="#181818" points="258.82,391.3583,268.6679,391.2183,263.3597,389.2628,265.3152,383.9547,258.82,391.3583" style="stroke:#181818;stroke-width:1.0;"/></g><!--link FluentMark to fep--><g id="link_FluentMark_fep"><path d="M478,320.3683 C478,331.7683 478,343.1583 478,354.5583 " fill="none" id="FluentMark-fep" style="stroke:#181818;stroke-width:1.0;"/></g><!--reverse link fep to extensions--><g id="link_fep_extensions"><path d="M478,379.3983 C478,390.6183 478,395.8283 478,407.0483 " fill="none" id="fep-backto-extensions" style="stroke:#181818;stroke-width:1.0;stroke-dasharray:7.0,7.0;"/><polygon fill="#181818" points="478,373.3983,474,382.3983,478,378.3983,482,382.3983,478,373.3983" style="stroke:#181818;stroke-width:1.0;"/></g><!--reverse link FluentMark to Developer--><g id="link_FluentMark_Developer"><path d="M553.87,296.9783 C593.37,296.9783 635.19,296.9783 666.66,296.9783 " fill="none" id="FluentMark-backto-Developer" style="stroke:#181818;stroke-width:1.0;stroke-dasharray:7.0,7.0;"/><polygon fill="#181818" points="547.87,296.9783,556.87,300.9783,552.87,296.9783,556.87,292.9783,547.87,296.9783" style="stroke:#181818;stroke-width:1.0;"/><text fill="#000000" font-family="sans-serif" font-size="13" lengthAdjust="spacing" textLength="29" x="607" y="293.5466">uses</text></g><text fill="#888888" font-family="sans-serif" font-size="10" lengthAdjust="spacing" textLength="191" x="269" y="485.1328">FluentMark Advantest Edition ver. 1.5.1</text><!--SRC=[TP9VQy8m5CNV_HHtxcLxQC67lOmYY7P3q37sZu7q8MjlDImc9ObED_RTTzDgUnK68T1xVZcvzwG0Ndg5yBnt7jSmDjhZplS059OUl04hboiFXRIOUsaqARGk2YobHaZVNzAdXz4CaeHEeTL23OTmgSAP3xN17h6BUokgrPlypZeyU2pINCdA8KmdQGR2mV6xenhkZeoqdmlx2QE6P9NchgKLUq9piwwC9WdMf1NcIqUviSpnfnTCEwnKk0jeIvpfZqfe_pgVSVqtz5G9NPWyutMHUsDXWbjKfa9B5KbPsbBa2FsGZdQKduFAKDtrmno8rJyOfygQuZ5qRdKSp9prG-kOF2InYjjXI6ZdIkAu2o4SEJv25C7LzQ51sckGTN3gmHGIMhzpeGdjO3sUJQb4UstDfikep6wAY6qIAEissBJDa8mDJkq3m2ri71wWqXWAcREZOalze_EG5ZBysR156yCWlea7Vm00]--></g></svg>