<svg xmlns="http://www.w3.org/2000/svg" xmlns:xlink="http://www.w3.org/1999/xlink" contentStyleType="text/css" height="496px" preserveAspectRatio="none" style="width:1372px;height:496px;background:#FFFFFF;" version="1.1" viewBox="0 0 1372 496" width="1372px" zoomAndPan="magnify"><defs/><g><!--cluster net.certiv.fluentmark.core.convert--><g id="cluster_net.certiv.fluentmark.core.convert"><path d="M8.5,6 L247.5,6 A3.75,3.75 0 0 1 250,8.5 L257,28.4883 L710.5,28.4883 A2.5,2.5 0 0 1 713,30.9883 L713,391.66 A2.5,2.5 0 0 1 710.5,394.16 L8.5,394.16 A2.5,2.5 0 0 1 6,391.66 L6,8.5 A2.5,2.5 0 0 1 8.5,6 " fill="#FFFFFF" style="stroke:#000000;stroke-width:1.5;"/><line style="stroke:#000000;stroke-width:1.5;" x1="6" x2="257" y1="28.4883" y2="28.4883"/><text fill="#000000" font-family="sans-serif" font-size="14" font-weight="bold" lengthAdjust="spacing" textLength="238" x="10" y="21.5352">net.certiv.fluentmark.core.convert</text></g><!--cluster net.certiv.fluentmark.core.markdown--><g id="cluster_net.certiv.fluentmark.core.markdown"><path d="M739.5,6 L1001.5,6 A3.75,3.75 0 0 1 1004,8.5 L1011,28.4883 L1244.5,28.4883 A2.5,2.5 0 0 1 1247,30.9883 L1247,486.66 A2.5,2.5 0 0 1 1244.5,489.16 L739.5,489.16 A2.5,2.5 0 0 1 737,486.66 L737,8.5 A2.5,2.5 0 0 1 739.5,6 " fill="#FFFFFF" style="stroke:#000000;stroke-width:1.5;"/><line style="stroke:#000000;stroke-width:1.5;" x1="737" x2="1011" y1="28.4883" y2="28.4883"/><text fill="#000000" font-family="sans-serif" font-size="14" font-weight="bold" lengthAdjust="spacing" textLength="261" x="741" y="21.5352">net.certiv.fluentmark.core.markdown</text></g><!--class HtmlGen--><g id="elem_HtmlGen"><rect codeLine="12" fill="#F1F1F1" height="56.4883" id="HtmlGen" rx="2.5" ry="2.5" style="stroke:#181818;stroke-width:0.5;" width="282" x="65" y="41"/><ellipse cx="172.25" cy="57" fill="#ADD1B2" rx="11" ry="11" style="stroke:#181818;stroke-width:1.0;"/><path d="M174.7231,63.1431 Q174.1421,63.4419 173.5029,63.5913 Q172.8638,63.7407 172.1582,63.7407 Q169.6514,63.7407 168.3315,62.0889 Q167.0117,60.437 167.0117,57.3159 Q167.0117,54.1865 168.3315,52.5347 Q169.6514,50.8828 172.1582,50.8828 Q172.8638,50.8828 173.5112,51.0322 Q174.1587,51.1816 174.7231,51.4805 L174.7231,54.2031 Q174.0923,53.6221 173.4988,53.3523 Q172.9053,53.0825 172.2744,53.0825 Q170.9297,53.0825 170.2449,54.1492 Q169.5601,55.2158 169.5601,57.3159 Q169.5601,59.4077 170.2449,60.4744 Q170.9297,61.541 172.2744,61.541 Q172.9053,61.541 173.4988,61.2712 Q174.0923,61.0015 174.7231,60.4204 Z " fill="#000000"/><text fill="#000000" font-family="sans-serif" font-size="14" lengthAdjust="spacing" textLength="59" x="192.75" y="62.291">HtmlGen</text><line style="stroke:#181818;stroke-width:0.5;" x1="66" x2="346" y1="73" y2="73"/><text fill="#000000" font-family="sans-serif" font-size="14" lengthAdjust="spacing" textLength="270" x="71" y="90.5352">buildHtml(IPath,... IDocument,...): String</text></g><!--class Converter--><g id="elem_Converter"><rect codeLine="15" fill="#F1F1F1" height="72.9766" id="Converter" rx="2.5" ry="2.5" style="stroke:#181818;stroke-width:0.5;" width="368" x="22" y="164.96"/><ellipse cx="167.75" cy="180.96" fill="#ADD1B2" rx="11" ry="11" style="stroke:#181818;stroke-width:1.0;"/><path d="M170.2231,187.1031 Q169.6421,187.4019 169.0029,187.5513 Q168.3638,187.7007 167.6582,187.7007 Q165.1514,187.7007 163.8315,186.0489 Q162.5117,184.397 162.5117,181.2759 Q162.5117,178.1465 163.8315,176.4947 Q165.1514,174.8428 167.6582,174.8428 Q168.3638,174.8428 169.0112,174.9922 Q169.6587,175.1416 170.2231,175.4405 L170.2231,178.1631 Q169.5923,177.5821 168.9988,177.3123 Q168.4053,177.0425 167.7744,177.0425 Q166.4297,177.0425 165.7449,178.1092 Q165.0601,179.1758 165.0601,181.2759 Q165.0601,183.3677 165.7449,184.4344 Q166.4297,185.501 167.7744,185.501 Q168.4053,185.501 168.9988,185.2312 Q169.5923,184.9615 170.2231,184.3804 Z " fill="#000000"/><text fill="#000000" font-family="sans-serif" font-size="14" lengthAdjust="spacing" textLength="68" x="188.25" y="186.251">Converter</text><line style="stroke:#181818;stroke-width:0.5;" x1="23" x2="389" y1="196.96" y2="196.96"/><text fill="#000000" font-family="sans-serif" font-size="14" lengthAdjust="spacing" textLength="254" x="28" y="214.4952">convert(IPath,... IDocument,...): String</text><text fill="#000000" font-family="sans-serif" font-size="14" lengthAdjust="spacing" textLength="356" x="28" y="230.9834">getText(IPath, IDocument, ITypedRegion[],...): String</text></g><path d="M425,158.48 L425,174.7905 L282,209.2041 L425,182.7905 L425,199.1011 A0,0 0 0 0 425,199.1011 L697,199.1011 A0,0 0 0 0 697,199.1011 L697,168.48 L687,158.48 L425,158.48 A0,0 0 0 0 425,158.48 " fill="#FEFFDD" style="stroke:#181818;stroke-width:0.5;"/><path d="M687,158.48 L687,168.48 L697,168.48 L687,158.48 " fill="#FEFFDD" style="stroke:#181818;stroke-width:0.5;"/><text fill="#000000" font-family="sans-serif" font-size="13" lengthAdjust="spacing" textLength="251" x="431" y="176.0484">uses pandoc to translate pre-processed</text><text fill="#000000" font-family="sans-serif" font-size="13" lengthAdjust="spacing" textLength="156" x="431" y="191.3589">Markdown code to HTML</text><path d="M425,209.1011 L425,217.7564 L384,225.6924 L425,225.7564 L425,234.4116 A0,0 0 0 0 425,234.4116 L615,234.4116 A0,0 0 0 0 615,234.4116 L615,219.1011 L605,209.1011 L425,209.1011 A0,0 0 0 0 425,209.1011 " fill="#FEFFDD" style="stroke:#181818;stroke-width:0.5;"/><path d="M605,209.1011 L605,219.1011 L615,219.1011 L605,209.1011 " fill="#FEFFDD" style="stroke:#181818;stroke-width:0.5;"/><text fill="#000000" font-family="sans-serif" font-size="13" lengthAdjust="spacing" textLength="169" x="431" y="226.6695">does some pre-processing</text><!--class UmlGen--><g id="elem_UmlGen"><rect codeLine="26" fill="#F1F1F1" height="56.4883" id="UmlGen" rx="2.5" ry="2.5" style="stroke:#181818;stroke-width:0.5;" width="170" x="121" y="321.67"/><ellipse cx="174.75" cy="337.67" fill="#ADD1B2" rx="11" ry="11" style="stroke:#181818;stroke-width:1.0;"/><path d="M177.2231,343.8131 Q176.6421,344.1119 176.0029,344.2613 Q175.3638,344.4107 174.6582,344.4107 Q172.1514,344.4107 170.8315,342.7589 Q169.5117,341.107 169.5117,337.9859 Q169.5117,334.8565 170.8315,333.2047 Q172.1514,331.5528 174.6582,331.5528 Q175.3638,331.5528 176.0112,331.7022 Q176.6587,331.8516 177.2231,332.1505 L177.2231,334.8731 Q176.5923,334.2921 175.9988,334.0223 Q175.4053,333.7525 174.7744,333.7525 Q173.4297,333.7525 172.7449,334.8192 Q172.0601,335.8858 172.0601,337.9859 Q172.0601,340.0777 172.7449,341.1444 Q173.4297,342.211 174.7744,342.211 Q175.4053,342.211 175.9988,341.9412 Q176.5923,341.6715 177.2231,341.0904 Z " fill="#000000"/><text fill="#000000" font-family="sans-serif" font-size="14" lengthAdjust="spacing" textLength="54" x="195.25" y="342.961">UmlGen</text><line style="stroke:#181818;stroke-width:0.5;" x1="122" x2="290" y1="353.67" y2="353.67"/><text fill="#000000" font-family="sans-serif" font-size="14" lengthAdjust="spacing" textLength="158" x="127" y="371.2052">uml2svg(String): String</text></g><path d="M326,332.26 L326,340.9153 L285,365.9141 L326,348.9153 L326,357.5705 A0,0 0 0 0 326,357.5705 L462,357.5705 A0,0 0 0 0 462,357.5705 L462,342.26 L452,332.26 L326,332.26 A0,0 0 0 0 326,332.26 " fill="#FEFFDD" style="stroke:#181818;stroke-width:0.5;"/><path d="M452,332.26 L452,342.26 L462,342.26 L452,332.26 " fill="#FEFFDD" style="stroke:#181818;stroke-width:0.5;"/><text fill="#000000" font-family="sans-serif" font-size="13" lengthAdjust="spacing" textLength="115" x="332" y="349.8284">calls PlantUML API</text><!--class PageRoot--><g id="elem_PageRoot"><rect codeLine="35" fill="#F1F1F1" height="65.1094" id="PageRoot" rx="2.5" ry="2.5" style="stroke:#181818;stroke-width:0.5;" width="124" x="850" y="168.9"/><ellipse cx="877.15" cy="189.2105" fill="#ADD1B2" rx="11" ry="11" style="stroke:#181818;stroke-width:1.0;"/><path d="M879.6231,195.3536 Q879.0421,195.6524 878.4029,195.8019 Q877.7638,195.9513 877.0582,195.9513 Q874.5514,195.9513 873.2315,194.2994 Q871.9117,192.6476 871.9117,189.5265 Q871.9117,186.3971 873.2315,184.7452 Q874.5514,183.0934 877.0582,183.0934 Q877.7638,183.0934 878.4112,183.2428 Q879.0587,183.3922 879.6231,183.691 L879.6231,186.4137 Q878.9923,185.8326 878.3988,185.5628 Q877.8053,185.2931 877.1744,185.2931 Q875.8297,185.2931 875.1449,186.3597 Q874.4601,187.4264 874.4601,189.5265 Q874.4601,191.6183 875.1449,192.6849 Q875.8297,193.7516 877.1744,193.7516 Q877.8053,193.7516 878.3988,193.4818 Q878.9923,193.212 879.6231,192.631 Z " fill="#000000"/><text fill="#000000" font-family="sans-serif" font-size="12" font-style="italic" lengthAdjust="spacing" textLength="63" x="894.85" y="185.5016">&#171;Singleton&#187;</text><text fill="#000000" font-family="sans-serif" font-size="14" lengthAdjust="spacing" textLength="65" x="893.85" y="201.568">PageRoot</text><line style="stroke:#181818;stroke-width:0.5;" x1="851" x2="973" y1="209.5211" y2="209.5211"/><text fill="#000000" font-family="sans-serif" font-size="14" lengthAdjust="spacing" textLength="112" x="856" y="227.0563">updateModel(...)</text></g><!--class PagePart--><g id="elem_PagePart"><rect codeLine="38" fill="#F1F1F1" height="32" id="PagePart" rx="2.5" ry="2.5" style="stroke:#181818;stroke-width:0.5;" width="92" x="753" y="333.92"/><ellipse cx="768" cy="349.92" fill="#ADD1B2" rx="11" ry="11" style="stroke:#181818;stroke-width:1.0;"/><path d="M770.4731,356.0631 Q769.8921,356.3619 769.2529,356.5113 Q768.6138,356.6607 767.9082,356.6607 Q765.4014,356.6607 764.0815,355.0089 Q762.7617,353.357 762.7617,350.2359 Q762.7617,347.1065 764.0815,345.4547 Q765.4014,343.8028 767.9082,343.8028 Q768.6138,343.8028 769.2612,343.9522 Q769.9087,344.1016 770.4731,344.4005 L770.4731,347.1231 Q769.8423,346.5421 769.2488,346.2723 Q768.6553,346.0025 768.0244,346.0025 Q766.6797,346.0025 765.9949,347.0692 Q765.3101,348.1358 765.3101,350.2359 Q765.3101,352.3277 765.9949,353.3944 Q766.6797,354.461 768.0244,354.461 Q768.6553,354.461 769.2488,354.1912 Q769.8423,353.9215 770.4731,353.3404 Z " fill="#000000"/><text fill="#000000" font-family="sans-serif" font-size="14" lengthAdjust="spacing" textLength="60" x="782" y="355.211">PagePart</text></g><!--class Lines--><g id="elem_Lines"><rect codeLine="39" fill="#F1F1F1" height="32" id="Lines" rx="2.5" ry="2.5" style="stroke:#181818;stroke-width:0.5;" width="101.4" x="888.5" y="325.42"/><ellipse cx="918.98" cy="341.42" fill="#ADD1B2" rx="11" ry="11" style="stroke:#181818;stroke-width:1.0;"/><path d="M921.4531,347.5631 Q920.8721,347.8619 920.2329,348.0113 Q919.5938,348.1607 918.8882,348.1607 Q916.3814,348.1607 915.0615,346.5089 Q913.7417,344.857 913.7417,341.7359 Q913.7417,338.6065 915.0615,336.9547 Q916.3814,335.3028 918.8882,335.3028 Q919.5938,335.3028 920.2412,335.4522 Q920.8887,335.6016 921.4531,335.9005 L921.4531,338.6231 Q920.8223,338.0421 920.2288,337.7723 Q919.6353,337.5025 919.0044,337.5025 Q917.6597,337.5025 916.9749,338.5692 Q916.2901,339.6358 916.2901,341.7359 Q916.2901,343.8277 916.9749,344.8944 Q917.6597,345.961 919.0044,345.961 Q919.6353,345.961 920.2288,345.6912 Q920.8223,345.4215 921.4531,344.8404 Z " fill="#000000"/><text fill="#000000" font-family="sans-serif" font-size="14" lengthAdjust="spacing" textLength="35" x="936.42" y="346.711">Lines</text></g><!--class Line--><g id="elem_Line"><rect codeLine="40" fill="#F1F1F1" height="32" id="Line" rx="2.5" ry="2.5" style="stroke:#181818;stroke-width:0.5;" width="99" x="821.5" y="441.16"/><ellipse cx="836.5" cy="457.16" fill="#ADD1B2" rx="11" ry="11" style="stroke:#181818;stroke-width:1.0;"/><path d="M838.9731,463.3031 Q838.3921,463.6019 837.7529,463.7513 Q837.1138,463.9007 836.4082,463.9007 Q833.9014,463.9007 832.5815,462.2489 Q831.2617,460.597 831.2617,457.4759 Q831.2617,454.3465 832.5815,452.6947 Q833.9014,451.0428 836.4082,451.0428 Q837.1138,451.0428 837.7612,451.1922 Q838.4087,451.3416 838.9731,451.6405 L838.9731,454.3631 Q838.3423,453.7821 837.7488,453.5123 Q837.1553,453.2425 836.5244,453.2425 Q835.1797,453.2425 834.4949,454.3092 Q833.8101,455.3758 833.8101,457.4759 Q833.8101,459.5677 834.4949,460.6344 Q835.1797,461.701 836.5244,461.701 Q837.1553,461.701 837.7488,461.4312 Q838.3423,461.1615 838.9731,460.5804 Z " fill="#000000"/><text fill="#000000" font-family="sans-serif" font-size="14" lengthAdjust="spacing" textLength="67" x="850.5" y="462.451">Lines.Line</text></g><!--class Parent--><g id="elem_Parent"><rect codeLine="41" fill="#F1F1F1" height="32" id="Parent" rx="2.5" ry="2.5" style="stroke:#181818;stroke-width:0.5;" width="76" x="786" y="53.24"/><ellipse cx="801" cy="69.24" fill="#A9DCDF" rx="11" ry="11" style="stroke:#181818;stroke-width:1.0;"/><path d="M800.8633,64.5881 L799.7095,69.6599 L802.0254,69.6599 Z M799.3691,62.3469 L802.3657,62.3469 L805.7109,74.74 L803.2622,74.74 L802.4985,71.677 L799.2197,71.677 L798.4727,74.74 L796.0239,74.74 Z " fill="#000000"/><text fill="#000000" font-family="sans-serif" font-size="14" font-style="italic" lengthAdjust="spacing" textLength="44" x="815" y="74.531">Parent</text></g><!--class UpdateJob--><g id="elem_UpdateJob"><rect codeLine="42" fill="#F1F1F1" height="56.4883" id="UpdateJob" rx="2.5" ry="2.5" style="stroke:#181818;stroke-width:0.5;" width="112" x="1076" y="41"/><ellipse cx="1095.05" cy="57" fill="#ADD1B2" rx="11" ry="11" style="stroke:#181818;stroke-width:1.0;"/><path d="M1097.5231,63.1431 Q1096.9421,63.4419 1096.3029,63.5913 Q1095.6638,63.7407 1094.9582,63.7407 Q1092.4514,63.7407 1091.1315,62.0889 Q1089.8117,60.437 1089.8117,57.3159 Q1089.8117,54.1865 1091.1315,52.5347 Q1092.4514,50.8828 1094.9582,50.8828 Q1095.6638,50.8828 1096.3112,51.0322 Q1096.9587,51.1816 1097.5231,51.4805 L1097.5231,54.2031 Q1096.8923,53.6221 1096.2988,53.3523 Q1095.7053,53.0825 1095.0744,53.0825 Q1093.7297,53.0825 1093.0449,54.1492 Q1092.3601,55.2158 1092.3601,57.3159 Q1092.3601,59.4077 1093.0449,60.4744 Q1093.7297,61.541 1095.0744,61.541 Q1095.7053,61.541 1096.2988,61.2712 Q1096.8923,61.0015 1097.5231,60.4204 Z " fill="#000000"/><text fill="#000000" font-family="sans-serif" font-size="14" lengthAdjust="spacing" textLength="71" x="1109.95" y="62.291">UpdateJob</text><line style="stroke:#181818;stroke-width:0.5;" x1="1077" x2="1187" y1="73" y2="73"/><text fill="#000000" font-family="sans-serif" font-size="14" lengthAdjust="spacing" textLength="100" x="1082" y="90.5352">run(...): IStatus</text></g><!--class Task--><g id="elem_Task"><rect codeLine="45" fill="#F1F1F1" height="32" id="Task" rx="2.5" ry="2.5" style="stroke:#181818;stroke-width:0.5;" width="139" x="1062.5" y="185.45"/><ellipse cx="1077.5" cy="201.45" fill="#ADD1B2" rx="11" ry="11" style="stroke:#181818;stroke-width:1.0;"/><path d="M1079.9731,207.5931 Q1079.3921,207.8919 1078.7529,208.0413 Q1078.1138,208.1907 1077.4082,208.1907 Q1074.9014,208.1907 1073.5815,206.5389 Q1072.2617,204.887 1072.2617,201.7659 Q1072.2617,198.6365 1073.5815,196.9847 Q1074.9014,195.3328 1077.4082,195.3328 Q1078.1138,195.3328 1078.7612,195.4822 Q1079.4087,195.6316 1079.9731,195.9305 L1079.9731,198.6531 Q1079.3423,198.0721 1078.7488,197.8023 Q1078.1553,197.5325 1077.5244,197.5325 Q1076.1797,197.5325 1075.4949,198.5992 Q1074.8101,199.6658 1074.8101,201.7659 Q1074.8101,203.8577 1075.4949,204.9244 Q1076.1797,205.991 1077.5244,205.991 Q1078.1553,205.991 1078.7488,205.7212 Q1079.3423,205.4515 1079.9731,204.8704 Z " fill="#000000"/><text fill="#000000" font-family="sans-serif" font-size="14" lengthAdjust="spacing" textLength="107" x="1091.5" y="206.741">UpdateJob.Task</text></g><g id="elem_GMN19"><path d="M1033,329.61 L1033,370.2311 A0,0 0 0 0 1033,370.2311 L1231,370.2311 A0,0 0 0 0 1231,370.2311 L1231,339.61 L1221,329.61 L1136,329.61 L1132,217.85 L1128,329.61 L1033,329.61 A0,0 0 0 0 1033,329.61 " fill="#FEFFDD" style="stroke:#181818;stroke-width:0.5;"/><path d="M1221,329.61 L1221,339.61 L1231,339.61 L1221,329.61 " fill="#FEFFDD" style="stroke:#181818;stroke-width:0.5;"/><text fill="#000000" font-family="sans-serif" font-size="13" lengthAdjust="spacing" textLength="145" x="1039" y="347.1784">parses a Markdown file</text><text fill="#000000" font-family="sans-serif" font-size="13" lengthAdjust="spacing" textLength="177" x="1039" y="362.4889">and re-calculates the model</text></g><!--class IResource--><g id="elem_IResource"><rect codeLine="7" fill="#ADD8E6" height="40.6211" id="IResource" rx="2.5" ry="2.5" style="stroke:#181818;stroke-width:0.5;" width="99" x="1266.5" y="329.61"/><ellipse cx="1281.5" cy="349.9205" fill="#B4A7E5" rx="11" ry="11" style="stroke:#181818;stroke-width:1.0;"/><path d="M1277.9277,346.1857 L1277.9277,344.0275 L1285.3071,344.0275 L1285.3071,346.1857 L1282.8418,346.1857 L1282.8418,354.2623 L1285.3071,354.2623 L1285.3071,356.4205 L1277.9277,356.4205 L1277.9277,354.2623 L1280.3931,354.2623 L1280.3931,346.1857 Z " fill="#000000"/><text fill="#000000" font-family="sans-serif" font-size="12" font-style="italic" lengthAdjust="spacing" textLength="59" x="1299.5" y="346.2116">&#171;external&#187;</text><text fill="#000000" font-family="sans-serif" font-size="14" font-style="italic" lengthAdjust="spacing" textLength="67" x="1295.5" y="362.278">IResource</text></g><!--link Converter to UmlGen--><g id="link_Converter_UmlGen"><path codeLine="54" d="M206,238.28 C206,263.86 206,291.75 206,315.26 " fill="none" id="Converter-to-UmlGen" style="stroke:#181818;stroke-width:1.0;"/><polygon fill="#181818" points="206,321.26,210,312.26,206,316.26,202,312.26,206,321.26" style="stroke:#181818;stroke-width:1.0;"/><text fill="#000000" font-family="sans-serif" font-size="13" lengthAdjust="spacing" textLength="8" x="197.125" y="310.9536">1</text></g><!--link HtmlGen to Converter--><g id="link_HtmlGen_Converter"><path codeLine="55" d="M206,97.85 C206,117.41 206,137.82 206,158.94 " fill="none" id="HtmlGen-to-Converter" style="stroke:#181818;stroke-width:1.0;"/><polygon fill="#181818" points="206,164.94,210,155.94,206,159.94,202,155.94,206,164.94" style="stroke:#181818;stroke-width:1.0;"/><text fill="#000000" font-family="sans-serif" font-size="13" lengthAdjust="spacing" textLength="8" x="197.2375" y="154.1489">1</text></g><!--reverse link Parent to PageRoot--><g id="link_Parent_PageRoot"><path codeLine="58" d="M844.5208,100.6023 C858.2708,120.9423 872.7,142.3 890.5,168.64 " fill="none" id="Parent-backto-PageRoot" style="stroke:#181818;stroke-width:1.0;"/><polygon fill="none" points="834.44,85.69,839.5501,103.9626,849.4916,97.242,834.44,85.69" style="stroke:#181818;stroke-width:1.0;"/></g><!--reverse link Parent to PagePart--><g id="link_Parent_PagePart"><path codeLine="59" d="M821.0119,103.548 C816.6419,152.268 804.74,284.93 800.38,333.58 " fill="none" id="Parent-backto-PagePart" style="stroke:#181818;stroke-width:1.0;"/><polygon fill="none" points="822.62,85.62,815.0359,103.012,826.9879,104.0841,822.62,85.62" style="stroke:#181818;stroke-width:1.0;"/></g><!--reverse link PageRoot to PagePart--><g id="link_PageRoot_PagePart"><path codeLine="60" d="M880.1489,243.7302 C856.3889,274.5202 828.72,310.4 810.69,333.77 " fill="none" id="PageRoot-backto-PagePart" style="stroke:#181818;stroke-width:1.0;"/><polygon fill="#181818" points="887.48,234.23,880.6477,236.5364,880.1489,243.7302,886.9812,241.4238,887.48,234.23" style="stroke:#181818;stroke-width:1.0;"/><text fill="#000000" font-family="sans-serif" font-size="13" lengthAdjust="spacing" textLength="32" x="856.5" y="287.9884">parts</text><text fill="#000000" font-family="sans-serif" font-size="13" lengthAdjust="spacing" textLength="26" x="854.3278" y="254.5054">root</text><text fill="#000000" font-family="sans-serif" font-size="13" lengthAdjust="spacing" textLength="6" x="807.6772" y="323.262">*</text></g><!--link PageRoot to Lines--><g id="link_PageRoot_Lines"><path codeLine="61" d="M920.5652,246.2265 C926.1752,274.8865 930.6879,297.9617 934.9279,319.6317 " fill="none" id="PageRoot-Lines" style="stroke:#181818;stroke-width:1.0;"/><polygon fill="#181818" points="918.26,234.45,915.4871,241.1066,920.5652,246.2265,923.3381,239.5699,918.26,234.45" style="stroke:#181818;stroke-width:1.0;"/><polygon fill="#181818" points="936.08,325.52,938.2774,315.9194,935.1199,320.613,930.4262,317.4556,936.08,325.52" style="stroke:#181818;stroke-width:1.0;"/><text fill="#000000" font-family="sans-serif" font-size="13" lengthAdjust="spacing" textLength="30" x="929.71" y="287.9884">lines</text><text fill="#000000" font-family="sans-serif" font-size="13" lengthAdjust="spacing" textLength="24" x="906.6935" y="314.8074">0..1</text></g><!--link PagePart to Line--><g id="link_PagePart_Line"><path codeLine="62" d="M816.0942,375.895 C829.7042,395.795 843.3616,415.7683 857.0816,435.8183 " fill="none" id="PagePart-Line" style="stroke:#181818;stroke-width:1.0;"/><polygon fill="#181818" points="809.32,365.99,809.4054,373.2006,816.0942,375.895,816.0088,368.6844,809.32,365.99" style="stroke:#181818;stroke-width:1.0;"/><polygon fill="#181818" points="860.47,440.77,858.6886,431.0836,857.6464,436.6436,852.0863,435.6014,860.47,440.77" style="stroke:#181818;stroke-width:1.0;"/><text fill="#000000" font-family="sans-serif" font-size="13" lengthAdjust="spacing" textLength="8" x="847.6569" y="430.4762">n</text></g><!--link Lines to Line--><g id="link_Lines_Line"><path codeLine="63" d="M930.11,357.29 C917.15,378.96 896.2687,413.8901 883.1887,435.7701 " fill="none" id="Lines-to-Line" style="stroke:#181818;stroke-width:1.0;"/><polygon fill="#181818" points="880.11,440.92,888.1613,435.2475,882.6756,436.6284,881.2947,431.1427,880.11,440.92" style="stroke:#181818;stroke-width:1.0;"/><text fill="#000000" font-family="sans-serif" font-size="13" lengthAdjust="spacing" textLength="8" x="873.8666" y="430.3811">1</text></g><!--link UpdateJob to Task--><g id="link_UpdateJob_Task"><path codeLine="64" d="M1132,109.85 C1132,136.43 1132,157.65 1132,179.08 " fill="none" id="UpdateJob-Task" style="stroke:#181818;stroke-width:1.0;"/><polygon fill="#181818" points="1132,97.85,1128,103.85,1132,109.85,1136,103.85,1132,97.85" style="stroke:#181818;stroke-width:1.0;"/><polygon fill="#181818" points="1132,185.08,1136,176.08,1132,180.08,1128,176.08,1132,185.08" style="stroke:#181818;stroke-width:1.0;"/><text fill="#000000" font-family="sans-serif" font-size="13" lengthAdjust="spacing" textLength="12" x="1118.0125" y="174.7929">m</text></g><!--link Task to PageRoot--><g id="link_Task_PageRoot"><path codeLine="65" d="M1062.08,201.45 C1032.82,201.45 1009.56,201.45 980.3,201.45 " fill="none" id="Task-to-PageRoot" style="stroke:#181818;stroke-width:1.0;"/><polygon fill="#181818" points="974.3,201.45,983.3,205.45,979.3,201.45,983.3,197.45,974.3,201.45" style="stroke:#181818;stroke-width:1.0;"/><text fill="#000000" font-family="sans-serif" font-size="13" lengthAdjust="spacing" textLength="8" x="981.9659" y="198.1686">1</text></g><!--link Parent to Parent--><g id="link_Parent_Parent"><path codeLine="66" d="M874.2793,57.6323 C892.6993,56.3123 897,60.75 897,69.24 C897,77.73 886.7147,81.7389 868.2947,80.4189 " fill="none" id="Parent-Parent" style="stroke:#181818;stroke-width:1.0;"/><polygon fill="#181818" points="862.31,58.49,868.5806,62.0509,874.2793,57.6323,868.0087,54.0714,862.31,58.49" style="stroke:#181818;stroke-width:1.0;"/><polygon fill="#181818" points="862.31,79.99,871.0011,84.6231,867.2972,80.3474,871.5729,76.6435,862.31,79.99" style="stroke:#181818;stroke-width:1.0;"/><text fill="#000000" font-family="sans-serif" font-size="13" lengthAdjust="spacing" textLength="51" x="870.0868" y="77.9734">children</text></g><!--link Task to IResource--><g id="link_Task_IResource"><path codeLine="67" d="M1151.34,217.85 C1185.02,244.66 1249.666,296.1128 1286.706,325.6028 " fill="none" id="Task-to-IResource" style="stroke:#181818;stroke-width:1.0;"/><polygon fill="#181818" points="1291.4,329.34,1286.8505,320.6049,1287.4884,326.2257,1281.8676,326.8635,1291.4,329.34" style="stroke:#181818;stroke-width:1.0;"/><text fill="#000000" font-family="sans-serif" font-size="13" lengthAdjust="spacing" textLength="8" x="1274.9988" y="318.7053">1</text></g><rect fill="#FFFFFF" height="17.3105" style="stroke:#000000;stroke-width:0.5;" width="78" x="891.11" y="357.29"/><text fill="#000000" font-family="sans-serif" font-size="13" lengthAdjust="spacing" textLength="74" x="893.11" y="370.8584">lineNum:int</text><!--SRC=[ZLLDRzim3BthLt3k8Lcn6DkEHX6WMBirGp84QGeCA7fGRCOngWz3ahiLM__xACiVSTgirK6nQJxoaOzIB3gmM7B3dJQWj4AsAp84bALx18boWyOozYx3RQ4GBd-kBrS_pkTmTeQ_7Hh5nNGA9wB8TsuZAcIiK6JUyXHXjaAhAvFsACP6gPOb9L4E5BeuHUEAXtXBIEKaD_TngWq2jr3_XhYvuO_mXp6WLVBqdkVu7p1jwe6-mCdNUX4IcfKARYrSEIc-eTgp-xMf2f7vJ-FPahlTXpYEONQXqqfISF_sFe5hPmgLTx2dWy1VGc8q1w4RGcyFx5UERaqTRa1x29Yj7qlCLfWNMjtUlKPDQOTWV1j1RtkAITAm6YIjB5fgiSfq2aw3CrnPmIb0QN1I6fsYjPWD80lgUwP_AQgIfeP0L-l5lFD0bTKCNgVJr3k8dMcYOxKSvDylyrdu8CJDIm9NKdos3_auTEhjBGl1agJ13vNbGbXO2gxSpM8EvylPSMgZmEr2Emh7-enlc6ZPzlZOI2yfm4fhHwVocceIwBIYOtdGW38ZAHSaanZxeJawnpxQak-DHZ3FwVpR0rjK6sE_H_xK-eVEXMyiJL3gkh26gZgKgYRrNMyEo9fAZSDapwuTTvKzoZRgGiHhRkzh6lvXAET6EwUbrtFmBGXW_DZpVfItXS212vq8e0aakTFAdmSBReSWVIjV5ZoGPACdnlfROJAPGlGfQYQAjVTGQ-uTsUWvg9aRraazgIP_fsrJMycUMslVoD0UmUaacq1q6dKAG-AhTxRtz2wKy6CSKyvQNF8HjV8TwBJcfC9t5fnklS-FIYPq_Tzrf6k7Nk80b57Gm6_GEBRvMM3UUAOxkfFfFMeB2f2i0NN_B-mV]--></g></svg>